<?xml version="1.0" encoding="utf-8"?>
<!-- Generator: Adobe Illustrator 16.0.0, SVG Export Plug-In . SVG Version: 6.00 Build 0)  -->
<!DOCTYPE svg PUBLIC "-//W3C//DTD SVG 1.1//EN" "http://www.w3.org/Graphics/SVG/1.1/DTD/svg11.dtd">
<svg version="1.1" id="圖層_1" xmlns="http://www.w3.org/2000/svg" xmlns:xlink="http://www.w3.org/1999/xlink" x="0px" y="0px"
	 width="1024px" height="1024px" viewBox="0 0 1024 1024" enable-background="new 0 0 1024 1024" xml:space="preserve">
<circle fill="currentColor" cx="512" cy="512" r="512"/>
<g>
	<path fill="#FFFFFF" d="M852.047,388.688c-14.287,5.319-25.277,8.735-38.58,5.708c-42.519-107.791-145.416-185.817-265.549-192.022
		c-101.5-5.244-192.068,39.281-250.603,110.785c-2.67,3.262-5.33,6.534-7.864,9.906c-0.206,0.275-0.435,0.532-0.64,0.806
		c0.035-0.029,0.07-0.053,0.105-0.082c6.947-5.899,14.175-10.363,21.502-13.352c0.582-0.232,1.16-0.443,1.745-0.708
		c8.97-3.347,18.072-4.4,26.998-2.614c43.216,8.65,65.721,78.261,50.265,155.483c-15.455,77.221-63.017,132.81-106.234,124.16
		c-30.298-6.064-50.345-42.144-54.338-89.751c-0.004-0.052-0.012-0.103-0.016-0.155c-0.013,0.516,0.011,1.041,0,1.557
		c-0.082,3.978-0.073,7.976,0,11.988c0.014,0.738-0.019,1.466,0,2.206c0.016,0.592,0.074,1.172,0.093,1.763
		c0.141,4.463,0.373,8.9,0.704,13.312c0.151,2.012,0.37,4.002,0.56,6.002c0.206,2.165,0.443,4.318,0.694,6.469
		c4.01,34.406,13.667,67.021,28.154,96.84c1.824,3.752,0.895,8.239-2.343,10.871l-8.306,6.752
		c-7.543,6.132-10.857,15.54-9.721,24.57c0.193,1.532,0.542,3.047,1.001,4.536c0.052,0.169,0.112,0.336,0.168,0.504
		c0.479,1.453,1.058,2.882,1.779,4.263l1.517-1.155l6.872-5.233c3.445-2.625,8.366-1.959,10.99,1.486
		c2.625,3.446,1.959,8.366-1.486,10.991l-7.359,5.604l-1.101,0.839l35.291,43.417c9.438,11.612,26.662,13.392,38.274,3.953
		l7.728-6.281c3.277-2.663,7.92-2.624,11.228-0.001c53.674,42.571,121.971,67.316,195.811,65.41
		c62.393-1.61,119.839-22.045,167.176-55.644c3.513-2.494,8.252-2.225,11.376,0.742l4.915,4.668
		c9.314,8.846,23.365,9.712,33.682,2.93c0.557-0.366,1.131-0.769,1.668-1.171l-0.112-0.105l-6.292-5.917
		c-3.158-2.963-3.318-7.926-0.355-11.085s7.926-3.318,11.085-0.356l6.748,6.328l37.786-39.789
		c10.305-10.851,9.857-28.161-0.993-38.466l-7.884-7.486c-2.971-2.82-3.591-7.257-1.605-10.839
		c28.123-50.737,42.113-110.272,36.658-173.192c-0.788-9.095-2-18.073-3.588-26.925c9.049-8.325,25.595-24.708,32.068-38.75
		C868.668,397.383,870.408,381.852,852.047,388.688z"/>
	<path fill="#FFFFFF" d="M240.438,480.749c3.064,36.873,18.576,64.824,42.029,69.519c33.417,6.688,70.193-36.295,82.144-96.005
		c11.951-59.709-5.451-113.536-38.866-120.224c-13.03-2.607-26.553,2.413-38.933,12.956c-13.51,11.505-25.636,29.651-34.217,51.929
		c-0.299-0.078-0.577-0.126-0.882-0.213c-4.209-1.206-6.461-3.948-9.367-4.571c11.547-12.485,13.29-31.725,3.133-46.219
		c-11.704-16.699-34.729-20.749-51.428-9.045c-15.042,10.542-19.701,30.231-11.947,46.248c-6.855,0.261-13.719,2.366-19.754,6.596
		c-16.699,11.704-20.749,34.729-9.045,51.427c11.704,16.699,34.729,20.749,51.428,9.045c5.314-3.725,9.19-8.665,11.843-14.116
		c5.582,10.259,13.83,18.807,23.351,24.701C239.781,468.948,239.957,474.958,240.438,480.749z M279.884,378.373
		c8.065-6.868,16.874-10.139,25.362-8.439c21.768,4.356,33.103,39.419,25.318,78.316c-7.785,38.896-31.742,66.896-53.51,62.539
		c-14.789-2.96-24.707-20.134-27.139-43.015c5.438,2.114,11.101,3.406,16.799,3.665c15.795,0.718,26.129-4.602,34.175-15.398
		c10.388-13.939,2.529-52.565-11.19-57.566c-10.694-3.898-17.006,0.789-26.515,1.492
		C267.985,391.02,273.711,383.628,279.884,378.373z"/>
</g>
</svg>
