<svg width="400" height="700" viewBox="0 0 400 700" fill="none" xmlns="http://www.w3.org/2000/svg">
  <rect width="400" height="700" fill="#f8f9fa"/>
  <rect x="10" y="10" width="380" height="680" rx="10" stroke="#333" stroke-width="2" fill="white"/>

  <rect x="30" y="30" width="340" height="150" fill="#e9ecef" stroke="#adb5bd" stroke-dasharray="5 5"/>
  <text x="200" y="110" font-family="Arial" font-size="28" fill="#6c757d" text-anchor="middle" font-weight="bold">Hero</text>
  
  <circle cx="200" cy="220" r="45" fill="white" stroke="#333" stroke-width="2"/>
  <line x1="160" y1="220" x2="240" y2="220" stroke="#dee2e6" stroke-width="1"/>

  <rect x="40" y="300" width="100" height="180" rx="4" stroke="#333" stroke-width="1.5"/>
  <text x="90" y="395" font-family="Arial" font-size="18" fill="#333" text-anchor="middle">New</text>
  
  <rect x="150" y="300" width="100" height="180" rx="4" stroke="#333" stroke-width="1.5"/>
  <text x="200" y="395" font-family="SimSun, Serif" font-size="22" fill="#333" text-anchor="middle">案</text>
  
  <rect x="260" y="300" width="100" height="180" rx="4" stroke="#333" stroke-width="1.5"/>
  <text x="310" y="395" font-family="Arial" font-size="18" fill="#333" text-anchor="middle">SNS</text>

  <path d="M40 540 Q 200 560 360 540" stroke="#adb5bd" fill="none" stroke-width="1"/>
  <path d="M40 555 Q 200 575 360 555" stroke="#dee2e6" fill="none" stroke-width="1"/>

  <circle cx="130" cy="620" r="12" fill="#adb5bd"/>
  <circle cx="165" cy="620" r="12" fill="#adb5bd"/>
  <circle cx="200" cy="620" r="12" fill="#adb5bd"/>
  <circle cx="235" cy="620" r="12" fill="#adb5bd"/>
  <circle cx="270" cy="620" r="12" fill="#adb5bd"/>
  
  <text x="200" y="660" font-family="Arial" font-size="12" fill="#999" text-anchor="middle">Plurk / Twitter / Bluesky / Pixiv</text>
</svg>